<svg width="32" height="32" viewBox="0 0 32 32" fill="none" xmlns="http://www.w3.org/2000/svg">
<path d="M14.8164 29.0664C14.3633 29.0664 13.9727 28.9375 13.6445 28.6797C13.3164 28.4297 13.1055 28.0859 13.0117 27.6484L12.4961 25.457L12.1211 25.3281L10.2227 26.5C9.83984 26.7344 9.44141 26.8242 9.02734 26.7695C8.61328 26.7227 8.24609 26.5391 7.92578 26.2188L6.29688 24.5898C5.96875 24.2617 5.77734 23.8945 5.72266 23.4883C5.67578 23.0742 5.77344 22.6797 6.01562 22.3047L7.19922 20.4062L7.07031 20.0547L4.87891 19.5391C4.44922 19.4453 4.10547 19.2344 3.84766 18.9062C3.58984 18.5703 3.46094 18.1797 3.46094 17.7344V15.4141C3.46094 14.9688 3.58594 14.582 3.83594 14.2539C4.09375 13.9258 4.44141 13.7109 4.87891 13.6094L7.04688 13.082L7.1875 12.707L6.00391 10.8086C5.76172 10.4336 5.66406 10.043 5.71094 9.63672C5.76562 9.22266 5.95703 8.85156 6.28516 8.52344L7.91406 6.88281C8.23438 6.57031 8.59766 6.38672 9.00391 6.33203C9.41797 6.27734 9.81641 6.36719 10.1992 6.60156L12.0977 7.77344L12.4961 7.62109L13.0117 5.42969C13.1055 5 13.3164 4.65625 13.6445 4.39844C13.9727 4.14062 14.3633 4.01172 14.8164 4.01172H17.1836C17.6367 4.01172 18.0234 4.14062 18.3438 4.39844C18.6719 4.65625 18.8867 5 18.9883 5.42969L19.4922 7.62109L19.8906 7.77344L21.8008 6.60156C22.1758 6.36719 22.5703 6.27734 22.9844 6.33203C23.3984 6.38672 23.7617 6.57031 24.0742 6.88281L25.7148 8.52344C26.043 8.85156 26.2305 9.22266 26.2773 9.63672C26.3242 10.043 26.2305 10.4336 25.9961 10.8086L24.8008 12.707L24.9531 13.082L27.1211 13.6094C27.5508 13.7109 27.8945 13.9258 28.1523 14.2539C28.4102 14.582 28.5391 14.9688 28.5391 15.4141V17.7344C28.5391 18.1797 28.4102 18.5703 28.1523 18.9062C27.8945 19.2344 27.5508 19.4453 27.1211 19.5391L24.9297 20.0547L24.7891 20.4062L25.9844 22.3047C26.2188 22.6797 26.3086 23.0742 26.2539 23.4883C26.207 23.8945 26.0234 24.2617 25.7031 24.5898L24.0625 26.2188C23.7422 26.5391 23.375 26.7227 22.9609 26.7695C22.5469 26.8242 22.1523 26.7344 21.7773 26.5L19.8672 25.3281L19.4922 25.457L18.9883 27.6484C18.8867 28.0859 18.6719 28.4297 18.3438 28.6797C18.0234 28.9375 17.6367 29.0664 17.1836 29.0664H14.8164ZM15.0039 27.2383H16.9961C17.1914 27.2383 17.3008 27.1484 17.3242 26.9688L18.0391 24.0625C18.3984 23.9766 18.7383 23.8672 19.0586 23.7344C19.3789 23.5938 19.6641 23.4453 19.9141 23.2891L22.4688 24.8594C22.6328 24.9688 22.7812 24.9492 22.9141 24.8008L24.2852 23.418C24.418 23.3008 24.4336 23.1562 24.332 22.9844L22.7617 20.4531C22.9023 20.2031 23.0391 19.918 23.1719 19.5977C23.3125 19.2773 23.4297 18.9375 23.5234 18.5781L26.4414 17.8867C26.6211 17.8555 26.7109 17.7422 26.7109 17.5469V15.5898C26.7109 15.4023 26.6211 15.2891 26.4414 15.25L23.5352 14.5469C23.4414 14.1641 23.3203 13.8086 23.1719 13.4805C23.0234 13.1523 22.8945 12.8789 22.7852 12.6602L24.3438 10.1289C24.4531 9.95703 24.4414 9.80469 24.3086 9.67188L22.9258 8.3125C22.7852 8.1875 22.6328 8.16797 22.4688 8.25391L19.9258 9.80078C19.668 9.66016 19.3789 9.52344 19.0586 9.39062C18.7461 9.25 18.4062 9.13281 18.0391 9.03906L17.3242 6.10938C17.3008 5.92969 17.1914 5.83984 16.9961 5.83984H15.0039C14.8086 5.83984 14.6953 5.92969 14.6641 6.10938L13.9727 9.01562C13.6211 9.10938 13.2734 9.22656 12.9297 9.36719C12.5938 9.50781 12.3008 9.64844 12.0508 9.78906L9.51953 8.25391C9.35547 8.16797 9.20703 8.1875 9.07422 8.3125L7.67969 9.67188C7.55469 9.80469 7.54297 9.95703 7.64453 10.1289L9.20312 12.6602C9.10156 12.8789 8.97266 13.1523 8.81641 13.4805C8.66797 13.8086 8.54688 14.1641 8.45312 14.5469L5.55859 15.25C5.37891 15.2891 5.28906 15.4023 5.28906 15.5898V17.5469C5.28906 17.7422 5.37891 17.8555 5.55859 17.8867L8.46484 18.5781C8.55859 18.9375 8.67578 19.2773 8.81641 19.5977C8.95703 19.918 9.09375 20.2031 9.22656 20.4531L7.65625 22.9844C7.5625 23.1562 7.57812 23.3008 7.70312 23.418L9.08594 24.8008C9.21875 24.9492 9.36328 24.9688 9.51953 24.8594L12.0742 23.2891C12.3242 23.4453 12.6094 23.5938 12.9297 23.7344C13.2578 23.8672 13.6016 23.9766 13.9609 24.0625L14.6641 26.9688C14.6953 27.1484 14.8086 27.2383 15.0039 27.2383ZM16 21.0039C15.1719 21.0039 14.418 20.8047 13.7383 20.4062C13.0664 20 12.5312 19.4609 12.1328 18.7891C11.7344 18.1094 11.5352 17.3594 11.5352 16.5391C11.5352 15.7109 11.7344 14.9609 12.1328 14.2891C12.5312 13.6172 13.0664 13.082 13.7383 12.6836C14.418 12.2773 15.1719 12.0742 16 12.0742C16.8203 12.0742 17.5664 12.2773 18.2383 12.6836C18.918 13.082 19.457 13.6172 19.8555 14.2891C20.2617 14.9609 20.4648 15.7109 20.4648 16.5391C20.4648 17.3594 20.2617 18.1094 19.8555 18.7891C19.457 19.4609 18.918 20 18.2383 20.4062C17.5664 20.8047 16.8203 21.0039 16 21.0039ZM16 19.1875C16.4844 19.1875 16.9258 19.0703 17.3242 18.8359C17.7305 18.5938 18.0508 18.2734 18.2852 17.875C18.5273 17.4688 18.6484 17.0234 18.6484 16.5391C18.6484 16.0469 18.5273 15.6016 18.2852 15.2031C18.0508 14.8047 17.7305 14.4883 17.3242 14.2539C16.9258 14.0117 16.4844 13.8906 16 13.8906C15.5078 13.8906 15.0625 14.0117 14.6641 14.2539C14.2656 14.4883 13.9453 14.8047 13.7031 15.2031C13.4688 15.6016 13.3516 16.0469 13.3516 16.5391C13.3516 17.0234 13.4688 17.4688 13.7031 17.875C13.9453 18.2734 14.2656 18.5938 14.6641 18.8359C15.0625 19.0703 15.5078 19.1875 16 19.1875Z" fill="white"/>
</svg>
