<svg width="32" height="32" viewBox="0 0 32 32" fill="none" xmlns="http://www.w3.org/2000/svg">
<path d="M3.40234 26.5234V6.71875C3.40234 6.46875 3.49219 6.25 3.67188 6.0625C3.85938 5.875 4.08594 5.78125 4.35156 5.78125C4.60938 5.78125 4.82812 5.875 5.00781 6.0625C5.19531 6.25 5.28906 6.46875 5.28906 6.71875V25.2461C5.28906 25.4648 5.39844 25.5742 5.61719 25.5742H27.6484C27.9062 25.5742 28.1289 25.6641 28.3164 25.8438C28.5039 26.0312 28.5977 26.2539 28.5977 26.5117C28.5977 26.7773 28.5039 27 28.3164 27.1797C28.1289 27.3594 27.9062 27.4492 27.6484 27.4492H4.33984C4.05859 27.4492 3.83203 27.3633 3.66016 27.1914C3.48828 27.0273 3.40234 26.8047 3.40234 26.5234ZM5.13672 20.207L3.70703 18.7891L8.94531 13.4805C9.21094 13.207 9.47266 13.0117 9.73047 12.8945C9.98828 12.7695 10.2539 12.707 10.5273 12.707C10.8008 12.707 11.0664 12.7695 11.3242 12.8945C11.5898 13.0195 11.8516 13.2148 12.1094 13.4805L16.4219 17.8984C16.5312 18.0078 16.6367 18.0625 16.7383 18.0625C16.8477 18.0625 16.957 18.0078 17.0664 17.8984L21.6836 13.2227L19.75 11.2891C19.6094 11.1484 19.5391 11.0039 19.5391 10.8555C19.5391 10.6992 19.5938 10.5586 19.7031 10.4336C19.8203 10.3086 19.9805 10.2188 20.1836 10.1641L27.0391 8.44141C27.2109 8.39453 27.3711 8.40625 27.5195 8.47656C27.668 8.54688 27.7773 8.65625 27.8477 8.80469C27.9258 8.94531 27.9414 9.10547 27.8945 9.28516L26.1602 16.1523C26.1055 16.3555 26.0156 16.5156 25.8906 16.6328C25.7656 16.7422 25.625 16.7969 25.4688 16.7969C25.3203 16.7969 25.1758 16.7266 25.0352 16.5859L23.1133 14.6523L18.332 19.457C17.8086 19.9727 17.2773 20.2305 16.7383 20.2305C16.4648 20.2305 16.1953 20.168 15.9297 20.043C15.6641 19.918 15.4062 19.7227 15.1562 19.457L10.8438 15.0391C10.7422 14.9297 10.6367 14.875 10.5273 14.875C10.418 14.875 10.3125 14.9297 10.2109 15.0391L5.13672 20.207Z" fill="white"/>
</svg>
